<?xml version="1.0" encoding="utf-8"?>
<!-- Generator: Adobe Illustrator 22.0.1, SVG Export Plug-In . SVG Version: 6.00 Build 0)  -->
<svg version="1.1" id="Слой_1" xmlns="http://www.w3.org/2000/svg" xmlns:xlink="http://www.w3.org/1999/xlink" x="0px" y="0px"
	 viewBox="0 0 800 800" style="enable-background:new 0 0 800 800;" xml:space="preserve">
<style type="text/css">
	.st0{fill:#FFFFFF;}
</style>
<g>
	<g>
		<path d="M567,600.1c4,0,7.3-3.3,7.3-7.3c0-4-3.3-7.3-7.3-7.3c-4,0-7.3,3.3-7.3,7.3C559.7,596.8,563,600.1,567,600.1z"/>
	</g>
	<g>
		<path d="M492.6,651.4c4,0,7.3-3.3,7.3-7.3c0-4-3.3-7.3-7.3-7.3s-7.3,3.3-7.3,7.3C485.3,648.2,488.6,651.4,492.6,651.4z"/>
	</g>
	<g>
		<ellipse cx="401.3" cy="267.2" rx="50.1" ry="48.2"/>
	</g>
	<g>
		<path d="M171.4,529.2c-4,0-7.3,3.3-7.3,7.3c0,4,3.3,7.3,7.3,7.3c4,0,7.3-3.3,7.3-7.3C178.8,532.5,175.5,529.2,171.4,529.2z"/>
	</g>
	<g>
		<path d="M310.1,636.8c-4,0-7.3,3.3-7.3,7.3c0,4,3.3,7.3,7.3,7.3c4,0,7.3-3.3,7.3-7.3C317.4,640.1,314.1,636.8,310.1,636.8z"/>
	</g>
	<g>
		<path d="M235.7,585.5c-4,0-7.3,3.3-7.3,7.3c0,4,3.3,7.3,7.3,7.3c4,0,7.3-3.3,7.3-7.3C243,588.8,239.7,585.5,235.7,585.5z"/>
	</g>
	<g>
		<path d="M631.2,529.2c-4,0-7.3,3.3-7.3,7.3c0,4,3.3,7.3,7.3,7.3c4,0,7.3-3.3,7.3-7.3C638.5,532.5,635.3,529.2,631.2,529.2z"/>
	</g>
	<g>
		<path d="M456.5,371.5c-8.5,4.4-17.5,8.1-26.8,10.3c-9.3,2.3-18.8,3.5-28.4,3.5c-9.6,0.1-19.1-1.2-28.4-3.5
			c-9.3-2.2-18.3-5.8-26.8-10.3c-17-9.1-31.9-22.5-43.2-39.1c7.4,18.8,21.5,35.1,39,46.2c8.7,5.7,18.4,9.9,28.4,12.8
			c10,2.9,20.5,4.3,31,4.4c10.5-0.1,20.9-1.5,31-4.4c10-3,19.7-7.2,28.4-12.8c17.5-11.1,31.6-27.5,39-46.2
			C488.4,349.1,473.5,362.4,456.5,371.5z"/>
	</g>
	<g>
		<path d="M400,364.1c53.4,0,96.9-43.5,96.9-96.9s-43.5-96.9-96.9-96.9c-53.4,0-96.9,43.5-96.9,96.9S346.6,364.1,400,364.1z
			 M400,176.8c50,0,90.4,40.5,90.4,90.4c0,50-40.5,90.4-90.4,90.4c-50,0-90.4-40.5-90.4-90.4C309.6,217.3,350,176.8,400,176.8z"/>
	</g>
	<g>
		<path d="M401.3,686.3c-4,0-7.3,3.3-7.3,7.3c0,4,3.3,7.3,7.3,7.3s7.3-3.3,7.3-7.3C408.7,689.6,405.4,686.3,401.3,686.3z"/>
	</g>
	<g>
		<path d="M0,0v800h800V0H0z M631.2,570.4c-18.7,0-33.9-15.2-33.9-33.9c0-5,1.1-9.7,3-13.9l-77.7-77.7v-57.6l-1.4,1.4
			c-4.9,4.9-10.1,9.4-15.5,13.6v95.2l52.4,62.6c2.8-0.7,5.7-1.2,8.7-1.2c18.7,0,33.9,15.2,33.9,33.9c0,18.7-15.2,33.9-33.9,33.9
			c-18.7,0-33.9-15.2-33.9-33.9c0-5.9,1.5-11.5,4.2-16.3l-58-69.3v-87.8c-6.6,3.4-13.4,6.3-20.4,8.8v131.6l30.6,50.7
			c1-0.1,2-0.2,3-0.2c18.7,0,33.9,15.2,33.9,33.9c0,18.7-15.2,33.9-33.9,33.9c-18.7,0-33.9-15.2-33.9-33.9c0-8,2.8-15.3,7.4-21.1
			l-33.8-55.9v-132c-5.9,1-11.8,1.8-17.7,2.2v225.2c12.1,5.2,20.6,17.2,20.6,31.2c0,18.7-15.2,33.9-33.9,33.9
			c-18.7,0-33.9-15.2-33.9-33.9c0-14,8.5-26,20.6-31.2V437c-5.9-0.5-11.9-1.4-17.7-2.5v132.6L336.5,623c4.6,5.8,7.4,13.1,7.4,21.1
			c0,18.7-15.2,33.9-33.9,33.9s-33.9-15.2-33.9-33.9c0-18.7,15.2-33.9,33.9-33.9c1,0,2,0.1,3,0.2l30.6-50.7V426.9
			c-6.9-2.6-13.8-5.7-20.4-9.3v89.5l-58,69.3c2.7,4.9,4.2,10.4,4.2,16.3c0,18.7-15.2,33.9-33.9,33.9s-33.9-15.2-33.9-33.9
			c0-18.7,15.2-33.9,33.9-33.9c3,0,5.9,0.4,8.7,1.2l52.4-62.6v-97.6c-4.2-3.5-8.4-7.2-12.3-11.2l-4.5-4.5v60.7l-77.7,77.7
			c1.9,4.3,3,9,3,13.9c0,18.7-15.2,33.9-33.9,33.9c-18.7,0-33.9-15.2-33.9-33.9s15.2-33.9,33.9-33.9c3.9,0,7.7,0.7,11.3,2l70.7-70.7
			v-76.3l-17.7-17.7v-91.5h0.1c1.1-90.5,74.8-163.5,165.6-163.5c90.8,0,164.5,73,165.6,163.5h0.1V343l-17.7,17.7v73.2l70.7,70.7
			c3.5-1.2,7.3-2,11.3-2c18.7,0,33.9,15.2,33.9,33.9S649.9,570.4,631.2,570.4z"/>
	</g>
</g>
</svg>
